<svg width="16" height="16" viewBox="0 0 16 16" fill="none" xmlns="http://www.w3.org/2000/svg">
<path d="M10.75 0.666626C9.98177 0.710897 9.09896 1.14058 8.57292 1.68486C8.09896 2.17965 7.72656 2.91663 7.8776 3.63017C8.71354 3.651 9.55208 3.2135 10.0547 2.65621C10.5234 2.13798 10.8776 1.41402 10.75 0.666626ZM10.7943 3.63017C9.58854 3.63017 9.08594 4.36975 8.25 4.36975C7.39063 4.36975 6.60417 3.67704 5.5651 3.67704C4.15104 3.67704 2 4.98694 2 8.07288C2 10.8828 4.54427 14 5.98177 14C6.85417 14.0078 7.0651 13.4505 8.25 13.4453C9.4349 13.4375 9.6901 14.0078 10.5651 14C11.5495 13.9921 12.3177 12.9114 12.8776 12.0546C13.2813 11.4401 13.4479 11.1276 13.7604 10.4349C11.4427 9.84892 10.9844 6.11454 13.7604 5.34371C13.2344 4.44788 11.7057 3.63017 10.7943 3.63017Z" fill="#1E1E1F"/>
</svg>
