<svg width="16" height="16" viewBox="0 0 16 16" fill="none" xmlns="http://www.w3.org/2000/svg">
<path fill-rule="evenodd" clip-rule="evenodd" d="M8.15641 14.2763C8.91641 14.1376 9.51516 13.7213 9.95641 13.3101C9.92266 13.5838 9.88016 13.8201 9.84141 14.0288C9.78891 14.3051 9.74516 14.5501 9.73516 14.8126C9.73391 14.9526 9.74016 15.0788 9.76016 15.1976C8.99516 15.0188 8.66391 15.0626 7.73766 15.1176C7.09391 15.1563 6.93266 15.1351 6.75016 15.1826C6.76891 15.0788 6.77641 14.9538 6.77141 14.7888C6.76891 14.5963 6.73391 14.4426 6.67516 14.3026C6.97141 14.3801 7.44016 14.4113 8.15641 14.2763ZM5.26891 11.7551C4.97641 11.4951 4.78141 11.3513 4.59641 11.1976C4.58391 11.1851 4.57266 11.1776 4.56266 11.1688C4.72641 11.3626 4.91891 11.6251 5.14641 11.9813C5.27641 12.1876 5.36266 12.3251 5.45391 12.4738C5.56516 12.6538 5.69016 12.8588 5.92266 13.2238C5.96141 13.2863 5.99516 13.3388 6.03391 13.3913C6.16141 13.3676 6.28891 13.3201 6.34641 13.2376C6.48516 13.0288 6.40391 12.7938 6.31266 12.6438C6.22391 12.4976 5.57891 12.0263 5.26891 11.7551ZM3.19266 10.8276C3.09391 10.3313 3.15891 10.1663 3.44766 9.44505C3.72391 8.75505 4.05266 7.9563 4.56266 7.19005C5.18266 6.25755 5.85391 5.76255 5.80266 5.0413C5.60891 2.3588 5.45266 1.0163 6.64391 0.398801C7.77891 -0.189949 8.72641 0.158801 9.10141 0.360051C9.26516 0.447551 9.59141 0.615051 9.83641 0.911301C10.0814 1.19755 10.3027 1.63505 10.4252 2.18755C10.6802 3.2938 10.3227 2.93005 10.6089 4.19505C10.8939 5.4613 11.4739 6.0813 12.1827 7.0838C12.8877 8.0863 13.6277 9.73755 13.3914 10.6926C13.3627 10.8076 13.3177 10.9451 13.2602 11.0938C13.2339 11.0863 13.2039 11.0838 13.1727 11.0838C13.1089 11.0838 13.0527 11.0963 13.0239 11.1013H13.0214C12.9814 11.1063 12.9452 11.1151 12.9114 11.1376C12.8989 11.0263 12.7164 10.9213 12.5752 10.8626C12.4302 10.8051 12.2714 10.7813 12.2714 10.7813C12.2714 10.7813 12.0914 10.7551 11.9352 10.7476C11.8827 10.7451 11.8902 10.7451 11.8277 10.7501C11.8914 10.6413 12.1439 10.1713 12.1064 9.24005C12.0602 8.13255 10.8602 7.49255 10.8314 7.5413C10.8127 7.57755 11.1714 7.6588 11.5464 8.1563C11.8802 8.6063 12.0502 9.20255 11.9839 9.68005C11.9377 10.0101 11.9114 10.1351 11.8464 10.3538C11.7964 10.5163 11.7289 10.6801 11.6977 10.7551C11.5864 10.7688 11.4789 10.7938 11.4189 10.8338C11.3102 10.9038 11.2239 11.0163 11.2864 11.0051C11.3489 10.9901 11.4164 10.8901 11.5464 10.8463C11.6777 10.8051 11.9039 10.8076 11.9902 10.8101C12.0814 10.8151 12.3027 10.8388 12.4539 10.8901C12.6064 10.9401 12.7289 11.0151 12.7939 11.1101C12.8127 11.1438 12.8314 11.1688 12.8514 11.1851C12.7939 11.2401 12.7402 11.3276 12.6639 11.4451C12.6277 11.5001 12.5814 11.5726 12.5627 11.5963C12.5164 11.6538 12.3439 11.7976 12.2089 11.8851C12.1177 11.9401 12.0702 11.9663 11.9189 11.9663C11.8852 11.9663 11.8489 11.9663 11.8077 11.9638C11.6202 11.9476 11.5702 11.9038 11.5002 11.8438C11.4877 11.8338 11.4789 11.8251 11.4689 11.8151L11.4477 11.8001C11.3802 11.7376 11.3802 11.7376 11.3852 11.6901L11.3914 11.6251C11.4164 11.4163 11.4377 11.2163 11.2939 11.0751C11.2189 10.9976 11.1352 10.9588 11.0389 10.9401C11.0602 10.7351 11.0789 10.5026 11.0789 10.3651C11.0789 9.7188 11.0027 9.06005 10.8539 8.57755C10.7164 8.12505 10.5027 7.80755 10.3152 7.3988C9.94266 6.5813 9.96141 6.2188 9.63016 5.69755C9.45016 5.4113 9.39891 5.1713 9.33891 5.00005C9.44516 4.8588 9.50016 4.6663 9.51641 4.4063C9.53141 4.17755 9.40391 4.0363 9.22641 3.93755C9.28391 3.86255 9.32016 3.7713 9.35141 3.6613C9.42266 3.38255 9.42766 3.07255 9.21891 2.7088C9.02391 2.36255 8.91391 2.30755 8.63016 2.2863C8.19766 2.24755 7.99266 2.55255 7.89641 2.7688C7.79391 3.00505 7.81516 2.9713 7.82266 3.2688C7.82266 3.30755 7.82516 3.3463 7.82766 3.38255C7.72891 3.36005 7.63016 3.3538 7.54766 3.3538C7.50016 3.3538 7.45266 3.3563 7.40891 3.36005C7.37016 3.36505 7.33641 3.37005 7.30266 3.37005C7.26016 3.37505 7.21641 3.37505 7.17141 3.38255C7.17516 3.3313 7.17766 3.2688 7.17766 3.20005C7.17766 2.88755 7.08141 2.7838 6.93516 2.5813C6.79391 2.38755 6.57266 2.37755 6.43266 2.4038C6.35141 2.4163 6.24766 2.5188 6.17516 2.67255C6.13016 2.7763 6.09141 2.9063 6.08891 3.0413C6.07891 3.4088 6.11016 3.5463 6.19516 3.7938C6.21641 3.8563 6.24266 3.9113 6.27391 3.9588C6.26516 3.9663 6.25766 3.9713 6.25016 3.9788C6.05266 4.14005 5.88266 4.2813 5.89141 4.5813C5.89641 4.82255 6.03391 5.01005 6.20266 5.1713C6.17141 5.3988 6.16391 5.45255 6.16391 5.7688C6.16391 6.0263 6.04641 6.0463 5.79141 6.43255C5.72391 6.5413 5.66141 6.6513 5.60891 6.7688C5.57891 6.87005 5.56266 6.95005 5.58891 7.0363C5.66391 7.2938 6.04141 7.3438 6.02141 7.42755C6.00266 7.51505 5.70641 7.55505 5.49766 7.67255C5.39016 7.73505 5.32516 7.82505 5.20016 7.93755C5.01891 8.3538 4.68766 8.82005 4.60141 9.2113C4.49516 9.67505 4.36516 9.9738 4.38766 10.5963C4.39141 10.7688 4.39641 10.8751 4.40891 10.9476C4.31766 10.8488 4.21391 10.7288 4.16141 10.6226C4.06266 10.4226 4.01266 10.1351 4.04391 9.7863C4.07891 9.39005 4.15641 9.1663 4.37016 8.6463C4.60391 8.0888 4.77391 7.9663 4.72891 7.9113C4.69016 7.86755 4.47641 8.2713 4.40141 8.42755C4.20391 8.8513 4.03641 9.24755 3.97891 9.75255C3.93766 10.1201 3.98391 10.3826 4.08391 10.6013C4.10891 10.6588 4.17141 10.7426 4.24016 10.8338C3.99016 10.6201 3.85141 10.6126 3.77641 10.6126C3.51516 10.6063 3.33141 10.7063 3.19266 10.8276ZM14.3989 13.1226C14.2214 13.0213 13.7602 12.6513 13.5289 12.2888C13.3914 12.0626 13.5889 11.7026 13.3964 11.4226C13.2814 11.2551 13.0777 11.3251 13.0464 11.3251C13.0127 11.3251 12.8339 11.6351 12.7652 11.7263C12.6877 11.8176 12.4902 11.9813 12.3464 12.0701C12.2027 12.1588 12.0914 12.2113 11.7864 12.1876C11.4839 12.1638 11.3964 12.0601 11.3002 11.9813C11.2039 11.8938 11.1089 11.8313 11.1277 11.6301C11.1489 11.4276 11.1727 11.2863 11.1127 11.2238C11.0464 11.1588 10.9564 11.1438 10.7602 11.1438C10.5602 11.1438 10.5214 11.1513 10.3564 11.2576C10.2627 11.3126 10.2577 11.6826 10.2577 12.1176C10.2577 12.4613 10.2602 12.8488 10.2289 13.1613C10.1564 13.8901 10.0102 14.3176 9.99516 14.7863C9.98141 15.2576 10.1402 15.5751 10.2814 15.6976C10.4227 15.8276 10.6327 15.9226 11.0939 15.9226C11.5552 15.9226 11.8439 15.8201 12.1464 15.5163C12.3439 15.3201 12.5502 15.1376 13.1514 14.7238C13.6302 14.3988 14.3489 14.0438 14.4927 13.8988C14.5627 13.8288 14.6902 13.7601 14.7002 13.5026C14.7039 13.2738 14.5264 13.2026 14.3989 13.1226ZM5.70391 13.3288C5.27891 12.6538 5.21141 12.5313 4.92766 12.0863C4.64641 11.6438 4.08891 10.8438 3.76891 10.8363C3.51641 10.8288 3.37266 10.9663 3.21391 11.1276C3.05516 11.2888 2.86016 11.7001 2.58141 11.9013C2.30266 12.1013 1.59641 12.0813 1.41641 12.3201C1.24016 12.5526 1.42266 12.8938 1.41891 13.5288C1.41891 13.7976 1.37266 14.0026 1.34141 14.1663C1.29766 14.3751 1.27141 14.5188 1.35641 14.6688C1.51641 14.9326 1.76891 14.9976 3.22391 15.3001C4.00266 15.4613 4.73516 15.8801 5.22891 15.9213C5.72391 15.9588 5.82891 15.7938 6.13016 15.5263C6.42516 15.2601 6.52391 15.3438 6.51516 14.7576C6.50266 14.1751 6.13016 14.0026 5.70391 13.3288ZM6.49016 5.2238C6.26266 5.0388 6.04766 4.8388 6.04391 4.5788C6.03141 4.30255 6.21141 4.2113 6.46891 3.99255C6.49516 3.9663 6.52891 3.93755 6.56766 3.9088C6.49766 3.8913 6.47641 3.8288 6.39141 3.74005C6.35891 3.70255 6.25516 3.5238 6.25516 3.37505C6.25516 3.2838 6.23516 3.1463 6.31516 3.0313C6.37016 2.94255 6.44266 2.9038 6.54391 2.9038C6.63516 2.9038 6.75266 2.9663 6.80766 3.04755C6.86766 3.13255 6.91141 3.25005 6.91141 3.38255C6.91141 3.4788 6.90641 3.57755 6.88766 3.6638C6.93016 3.63755 6.97141 3.61005 7.01016 3.5913C7.16641 3.51505 7.26516 3.5288 7.42516 3.51005C7.65141 3.4838 7.96141 3.5388 8.10391 3.6438C8.14641 3.67505 8.18516 3.70255 8.22141 3.7263C8.19016 3.62005 8.18266 3.4763 8.18266 3.36505C8.18266 3.19505 8.23141 3.07505 8.31766 2.9763C8.38516 2.9063 8.50266 2.89005 8.60141 2.89005C8.83391 2.89005 8.96891 3.0988 9.01641 3.36505C9.03391 3.48505 9.00766 3.62505 8.93266 3.7213C8.86266 3.81255 8.75266 3.87505 8.64641 3.8938C9.01016 3.99505 9.38766 4.0863 9.36516 4.3963C9.33891 4.8338 9.21141 5.0288 8.84891 5.1438C8.55516 5.23505 8.03641 5.73755 7.63266 5.73755C7.45266 5.73755 7.20266 5.75005 7.05516 5.69755C6.91641 5.6488 6.72141 5.4138 6.49016 5.2238ZM8.70266 3.1688C8.73391 3.2063 8.75266 3.30255 8.79766 3.26505C8.84891 3.2263 8.84891 3.1713 8.78641 3.1038C8.72641 3.0363 8.67266 3.01255 8.64891 3.0363C8.60141 3.0838 8.64641 3.11255 8.70266 3.1688ZM7.60891 3.7238C7.64141 3.7938 7.72891 3.80255 7.78641 3.8388C7.84391 3.87005 7.87516 3.87505 7.89641 3.86255C7.94516 3.8388 7.90891 3.74755 7.85891 3.7163C7.81266 3.68505 7.58891 3.68005 7.60891 3.7238ZM6.92516 3.8288C6.91641 3.8563 6.99266 3.9088 7.03141 3.87005C7.07266 3.8388 7.12266 3.80255 7.14391 3.7913C7.22141 3.74255 7.19016 3.7063 7.06516 3.7238C6.93766 3.75005 6.93766 3.80005 6.92516 3.8288ZM6.63016 3.20005C6.67766 3.26005 6.67516 3.3513 6.72891 3.3288C6.74766 3.32505 6.74016 3.1713 6.70391 3.1038C6.66641 3.0413 6.57891 3.0338 6.56266 3.06505C6.54641 3.1038 6.58141 3.14005 6.63016 3.20005ZM6.31016 4.9163C6.41891 5.00505 6.55266 5.0888 6.66891 5.1463C6.73516 5.18005 6.90891 5.2213 6.90891 5.2213C7.07016 5.24005 7.22391 5.23505 7.32266 5.23505C7.55516 5.23505 7.84391 5.14005 8.14641 4.99255C8.44516 4.8438 8.51641 4.7863 8.72641 4.6638C8.93266 4.55005 9.19016 4.4013 9.09891 4.3563C9.01016 4.31255 8.91891 4.37505 8.62516 4.55255C8.33891 4.7288 8.14141 4.8338 7.85891 4.9588C7.72891 5.01505 7.55266 5.0838 7.42516 5.0938C7.30016 5.1013 7.14016 5.0988 7.04391 5.0988C6.93016 5.0988 6.80516 5.05255 6.69016 5.01255C6.61766 4.98505 6.54766 4.94255 6.51891 4.9188C6.42141 4.8563 6.24516 4.68755 6.18516 4.6488C6.16641 4.6438 6.11516 4.6463 6.12516 4.68255C6.15641 4.7838 6.22141 4.8463 6.31016 4.9163Z" fill="#1E1E1F"/>
</svg>
